<svg width="50" height="50" fill="none" xmlns="http://www.w3.org/2000/svg"><path d="M7.324 50h16.309V32.227h-5.86v-5.86h5.86v-7.324c0-4.039 3.285-7.324 7.324-7.324h7.324v5.86h-5.86a2.933 2.933 0 00-2.929 2.929v5.86h8.525l-.977 5.859h-7.548V50h13.184C46.714 50 50 46.714 50 42.676V7.324C50 3.286 46.714 0 42.676 0H7.324C3.286 0 0 3.286 0 7.324v35.352C0 46.714 3.286 50 7.324 50zM2.93 7.324A4.4 4.4 0 017.324 2.93h35.352a4.4 4.4 0 014.394 4.394v35.352a4.4 4.4 0 01-4.394 4.394H32.422V35.156h7.1l1.953-11.718h-9.053v-2.93h8.789V8.789H30.957c-5.654 0-10.254 4.6-10.254 10.254v4.395h-5.86v11.718h5.86V47.07H7.324a4.4 4.4 0 01-4.394-4.394V7.324z" fill="#FCCDBE"/></svg>