<svg width="50" height="50" fill="none" xmlns="http://www.w3.org/2000/svg"><path d="M40.104 49H9.896C4.992 49 1 45.008 1 40.104V9.896C1 4.992 4.992 1 9.896 1h30.208C45.008 1 49 4.992 49 9.896v30.208C49 45.008 45.008 49 40.104 49zM9.896 2.125c-4.286 0-7.771 3.485-7.771 7.77v30.21c0 4.285 3.485 7.77 7.77 7.77h30.21c4.285 0 7.77-3.485 7.77-7.77V9.894c0-4.285-3.485-7.77-7.77-7.77H9.894z" fill="#FCCDBE" stroke="#FCCDBE" stroke-width="2"/><path d="M25 37.77c7.041 0 12.77-5.728 12.77-12.77S32.042 12.23 25 12.23 12.229 17.958 12.229 25s5.73 12.77 12.77 12.77zm0-22.416c5.319 0 9.646 4.327 9.646 9.646 0 5.319-4.327 9.646-9.646 9.646-5.319 0-9.646-4.327-9.646-9.646 0-5.319 4.327-9.646 9.646-9.646zm13.246-.016c2.054 0 3.602-1.542 3.602-3.586 0-2.131-1.63-3.585-3.6-3.585-2.054 0-3.602 1.541-3.602 3.585 0 2.127 1.62 3.586 3.6 3.586zm.369-3.93c.658.582-.844 1.288-.844.346 0-.562.765-.416.844-.346z" fill="#BDBDBD"/></svg>