<svg width="50" height="50" fill="none" xmlns="http://www.w3.org/2000/svg"><path d="M38.784 12.07a2.597 2.597 0 00-2.651-.45l-24.031 9.44a2.604 2.604 0 00.441 4.978l5.686 1.137v7.197a2.602 2.602 0 004.445 1.842l3.033-3.033 4.76 4.19a2.583 2.583 0 002.52.523 2.582 2.582 0 001.739-1.897l4.898-21.371a2.598 2.598 0 00-.84-2.556zm-11.191 6.263l-8.164 5.896-4.535-.907 12.699-4.99zm-6.24 14.782v-3.764l2.003 1.762-2.002 2.002zm10.522 1.332l-9.582-8.432 13.798-9.965-4.216 18.397z" fill="#BDBDBD"/><rect x="1.5" y="1.5" width="47" height="47" rx="4.5" stroke="#FCCDBE" stroke-width="3"/></svg>