<svg width="50" height="50" fill="none" xmlns="http://www.w3.org/2000/svg"><path d="M36.355 26.666c-.342-.459-.268-.76-.006-1.22.326-.573.976-1.449 1.664-2.376 2.208-2.972 3.632-5.03 3.337-6.498a.977.977 0 00-.957-.784c-.003 0-4.806.001-6.579.01a.968.968 0 00-.93.69c-.214.719-1.047 2.664-2.056 4.445-1.31 2.31-2.167 3.033-2.469 3.16l-.048-.015c-.098-.122-.27-.451-.34-1.305-.074-.892-.009-1.972.054-3.016.074-1.22.139-2.275-.014-3.027-.106-.275-.026-1.179-.867-1.368-1.16-.261-2.732-.349-3.853-.36-2.657-.027-3.438.356-3.821.695a.976.976 0 00.335 1.657c.596.2.808.454.978 1.654.108.766.165 2.051.047 3.198-.164 1.619-.557 1.943-.595 1.969-.084-.028-.736-.31-1.914-2.7-1.014-2.057-1.864-4.527-2.262-5.552a.977.977 0 00-.91-.623h-5.84a.977.977 0 00-.91 1.328c1.829 4.737 3.928 9.588 6.872 12.982 3.046 3.513 6.805 5.22 11.494 5.22.54 0 .976-.436.976-.976 0-1.684.237-2.184.607-2.886.205-.388.405-.554.514-.579.099-.023.273.05.467.195.555.413.996.958 1.463 1.534.672.83 1.368 1.689 2.472 2.252.602.305 1.679.46 2.297.451h4.876a.968.968 0 00.975-1.007c-.12-2.887-4.164-6.026-5.057-7.148zm-.801 6.212h-.016c-.407.01-1.147-.127-1.388-.25-.734-.373-1.247-1.006-1.84-1.74-.523-.644-1.062-1.31-1.814-1.87-1.385-1.033-2.953-.707-3.875 1.038-.517.98-.717 1.625-.8 2.796-3.69-.208-6.593-1.659-9.075-4.521-2.48-2.862-4.363-6.946-6.005-11.078h3.732c1.46 3.93 3.353 8.877 5.759 8.877.59 0 1.121-.25 1.534-.725 1.583-1.823.958-6.621.95-6.67-.083-.591-.202-1.212-.493-1.766 1.24-.049 2.903.032 3.879.177.094.508.033 1.517-.026 2.493-.144 2.376-.293 4.828.982 5.947.038.034.745.463 1.182.479.794.031 2.093-.356 4.193-4.005.857-1.488 1.653-3.202 2.08-4.321 1.412-.003 3.39-.008 4.687-.006-.572 1.264-1.839 2.94-2.755 4.173-.755 1.018-1.408 1.897-1.793 2.574-.717 1.258-.597 2.38.15 3.37a.249.249 0 00.012.016c.926 1.177 3.331 3.002 4.334 5.012h-3.594z" fill="#BDBDBD"/><path d="M9.896 50h30.208C45.56 50 50 45.56 50 40.104V9.896C50 4.44 45.56 0 40.104 0H9.896C4.44 0 0 4.44 0 9.896v30.208C0 45.56 4.44 50 9.896 50zM3.125 9.896a6.779 6.779 0 016.77-6.771h30.21a6.779 6.779 0 016.77 6.77v30.21a6.779 6.779 0 01-6.77 6.77H9.894a6.779 6.779 0 01-6.77-6.77V9.894z" fill="#FCCDBE"/></svg>