<svg width="50" height="50" fill="none" xmlns="http://www.w3.org/2000/svg"><path d="M24.194 8.353c-8.85.417-15.832 7.734-15.805 16.529a16.33 16.33 0 001.808 7.441l-1.763 8.502a.645.645 0 00.783.755l8.39-1.973a16.635 16.635 0 007.14 1.72c9.045.138 16.585-6.992 16.867-15.967.303-9.625-7.695-17.468-17.42-17.008v.001zm10.011 25.612a12.972 12.972 0 01-9.2 3.783 12.95 12.95 0 01-5.79-1.346l-1.168-.579-5.145 1.21 1.083-5.218-.576-1.12a12.7 12.7 0 01-1.414-5.862c0-3.45 1.354-6.695 3.81-9.133a13.084 13.084 0 019.2-3.785c3.477 0 6.744 1.343 9.2 3.783a12.786 12.786 0 013.812 9.134 12.89 12.89 0 01-3.812 9.135v-.002z" fill="#BDBDBD"/><path d="M33.07 28.408l-3.218-.917a1.204 1.204 0 00-1.188.31l-.787.797a1.178 1.178 0 01-1.275.267c-1.522-.612-4.725-3.438-5.543-4.853a1.156 1.156 0 01.093-1.29l.687-.884a1.183 1.183 0 00.148-1.21l-1.353-3.04a1.204 1.204 0 00-1.875-.427c-.899.755-1.965 1.9-2.094 3.172-.228 2.239.739 5.06 4.395 8.45 4.225 3.915 7.61 4.434 9.812 3.902 1.25-.3 2.25-1.505 2.878-2.49a1.188 1.188 0 00-.68-1.787z" fill="#BDBDBD"/><rect x="1.5" y="1.5" width="47" height="47" rx="4.5" stroke="#FCCDBE" stroke-width="3"/></svg>